<mxfile host="Electron" modified="2024-11-28T09:25:13.504Z" agent="Mozilla/5.0 (Windows NT 10.0; Win64; x64) AppleWebKit/537.36 (KHTML, like Gecko) draw.io/22.0.3 Chrome/114.0.5735.289 Electron/25.8.4 Safari/537.36" etag="k-zGwVAWyB-Lfx987_Tm" version="22.0.3" type="device">
  <diagram name="Seite-1" id="COGQcIUdm5zjYVEHk6br">
    <mxGraphModel dx="1434" dy="836" grid="1" gridSize="10" guides="1" tooltips="1" connect="1" arrows="1" fold="1" page="1" pageScale="1" pageWidth="827" pageHeight="1169" math="0" shadow="0">
      <root>
        <mxCell id="0" />
        <mxCell id="1" parent="0" />
        <mxCell id="BDJaBy8r5Nu-VvaeWj8J-1" value="Events" style="rounded=0;whiteSpace=wrap;html=1;" vertex="1" parent="1">
          <mxGeometry x="294" y="170" width="120" height="60" as="geometry" />
        </mxCell>
        <mxCell id="BDJaBy8r5Nu-VvaeWj8J-2" value="Teilnehmer" style="rounded=0;whiteSpace=wrap;html=1;" vertex="1" parent="1">
          <mxGeometry x="294" y="420" width="120" height="60" as="geometry" />
        </mxCell>
        <mxCell id="BDJaBy8r5Nu-VvaeWj8J-3" value="EventID&lt;br&gt;(PK)" style="ellipse;whiteSpace=wrap;html=1;" vertex="1" parent="1">
          <mxGeometry x="140" y="30" width="120" height="80" as="geometry" />
        </mxCell>
        <mxCell id="BDJaBy8r5Nu-VvaeWj8J-9" value="" style="edgeStyle=orthogonalEdgeStyle;rounded=0;orthogonalLoop=1;jettySize=auto;html=1;" edge="1" parent="1" source="BDJaBy8r5Nu-VvaeWj8J-4" target="BDJaBy8r5Nu-VvaeWj8J-1">
          <mxGeometry relative="1" as="geometry" />
        </mxCell>
        <mxCell id="BDJaBy8r5Nu-VvaeWj8J-4" value="Titel" style="ellipse;whiteSpace=wrap;html=1;" vertex="1" parent="1">
          <mxGeometry x="320" y="10" width="120" height="80" as="geometry" />
        </mxCell>
        <mxCell id="BDJaBy8r5Nu-VvaeWj8J-10" style="edgeStyle=orthogonalEdgeStyle;rounded=0;orthogonalLoop=1;jettySize=auto;html=1;exitX=0;exitY=1;exitDx=0;exitDy=0;entryX=1;entryY=0.25;entryDx=0;entryDy=0;" edge="1" parent="1" source="BDJaBy8r5Nu-VvaeWj8J-5" target="BDJaBy8r5Nu-VvaeWj8J-1">
          <mxGeometry relative="1" as="geometry" />
        </mxCell>
        <mxCell id="BDJaBy8r5Nu-VvaeWj8J-5" value="Datum" style="ellipse;whiteSpace=wrap;html=1;" vertex="1" parent="1">
          <mxGeometry x="460" y="70" width="120" height="80" as="geometry" />
        </mxCell>
        <mxCell id="BDJaBy8r5Nu-VvaeWj8J-7" value="" style="edgeStyle=orthogonalEdgeStyle;rounded=0;orthogonalLoop=1;jettySize=auto;html=1;" edge="1" parent="1" source="BDJaBy8r5Nu-VvaeWj8J-6" target="BDJaBy8r5Nu-VvaeWj8J-1">
          <mxGeometry relative="1" as="geometry" />
        </mxCell>
        <mxCell id="BDJaBy8r5Nu-VvaeWj8J-6" value="Details" style="ellipse;whiteSpace=wrap;html=1;" vertex="1" parent="1">
          <mxGeometry x="90" y="140" width="120" height="80" as="geometry" />
        </mxCell>
        <mxCell id="BDJaBy8r5Nu-VvaeWj8J-8" style="edgeStyle=orthogonalEdgeStyle;rounded=0;orthogonalLoop=1;jettySize=auto;html=1;exitX=1;exitY=1;exitDx=0;exitDy=0;entryX=0.175;entryY=0.05;entryDx=0;entryDy=0;entryPerimeter=0;" edge="1" parent="1" source="BDJaBy8r5Nu-VvaeWj8J-3" target="BDJaBy8r5Nu-VvaeWj8J-1">
          <mxGeometry relative="1" as="geometry" />
        </mxCell>
        <mxCell id="BDJaBy8r5Nu-VvaeWj8J-15" value="" style="edgeStyle=orthogonalEdgeStyle;rounded=0;orthogonalLoop=1;jettySize=auto;html=1;" edge="1" parent="1" source="BDJaBy8r5Nu-VvaeWj8J-11" target="BDJaBy8r5Nu-VvaeWj8J-2">
          <mxGeometry relative="1" as="geometry" />
        </mxCell>
        <mxCell id="BDJaBy8r5Nu-VvaeWj8J-11" value="EventID&lt;br&gt;(FK)" style="ellipse;whiteSpace=wrap;html=1;" vertex="1" parent="1">
          <mxGeometry x="100" y="465" width="120" height="80" as="geometry" />
        </mxCell>
        <mxCell id="BDJaBy8r5Nu-VvaeWj8J-16" value="" style="edgeStyle=orthogonalEdgeStyle;rounded=0;orthogonalLoop=1;jettySize=auto;html=1;" edge="1" parent="1" source="BDJaBy8r5Nu-VvaeWj8J-12" target="BDJaBy8r5Nu-VvaeWj8J-2">
          <mxGeometry relative="1" as="geometry" />
        </mxCell>
        <mxCell id="BDJaBy8r5Nu-VvaeWj8J-12" value="TeilnehmerID&lt;br&gt;(PK)" style="ellipse;whiteSpace=wrap;html=1;" vertex="1" parent="1">
          <mxGeometry x="230" y="560" width="120" height="80" as="geometry" />
        </mxCell>
        <mxCell id="BDJaBy8r5Nu-VvaeWj8J-18" style="edgeStyle=orthogonalEdgeStyle;rounded=0;orthogonalLoop=1;jettySize=auto;html=1;exitX=0;exitY=0;exitDx=0;exitDy=0;entryX=0.75;entryY=1;entryDx=0;entryDy=0;" edge="1" parent="1" source="BDJaBy8r5Nu-VvaeWj8J-13" target="BDJaBy8r5Nu-VvaeWj8J-2">
          <mxGeometry relative="1" as="geometry" />
        </mxCell>
        <mxCell id="BDJaBy8r5Nu-VvaeWj8J-13" value="Name" style="ellipse;whiteSpace=wrap;html=1;" vertex="1" parent="1">
          <mxGeometry x="410" y="560" width="120" height="80" as="geometry" />
        </mxCell>
        <mxCell id="BDJaBy8r5Nu-VvaeWj8J-19" value="" style="edgeStyle=orthogonalEdgeStyle;rounded=0;orthogonalLoop=1;jettySize=auto;html=1;" edge="1" parent="1" source="BDJaBy8r5Nu-VvaeWj8J-14" target="BDJaBy8r5Nu-VvaeWj8J-2">
          <mxGeometry relative="1" as="geometry" />
        </mxCell>
        <mxCell id="BDJaBy8r5Nu-VvaeWj8J-14" value="Email" style="ellipse;whiteSpace=wrap;html=1;" vertex="1" parent="1">
          <mxGeometry x="480" y="440" width="120" height="80" as="geometry" />
        </mxCell>
        <mxCell id="BDJaBy8r5Nu-VvaeWj8J-20" value="" style="endArrow=classic;html=1;rounded=0;entryX=0.5;entryY=0;entryDx=0;entryDy=0;exitX=0.5;exitY=1;exitDx=0;exitDy=0;" edge="1" parent="1" source="BDJaBy8r5Nu-VvaeWj8J-1" target="BDJaBy8r5Nu-VvaeWj8J-2">
          <mxGeometry relative="1" as="geometry">
            <mxPoint x="260" y="330" as="sourcePoint" />
            <mxPoint x="420" y="330" as="targetPoint" />
          </mxGeometry>
        </mxCell>
        <mxCell id="BDJaBy8r5Nu-VvaeWj8J-21" value="besteht aus" style="edgeLabel;resizable=0;html=1;align=center;verticalAlign=middle;" connectable="0" vertex="1" parent="BDJaBy8r5Nu-VvaeWj8J-20">
          <mxGeometry relative="1" as="geometry" />
        </mxCell>
        <mxCell id="BDJaBy8r5Nu-VvaeWj8J-22" value="1" style="edgeLabel;resizable=0;html=1;align=left;verticalAlign=bottom;" connectable="0" vertex="1" parent="BDJaBy8r5Nu-VvaeWj8J-20">
          <mxGeometry x="-1" relative="1" as="geometry" />
        </mxCell>
        <mxCell id="BDJaBy8r5Nu-VvaeWj8J-23" value="n" style="edgeLabel;resizable=0;html=1;align=right;verticalAlign=bottom;" connectable="0" vertex="1" parent="BDJaBy8r5Nu-VvaeWj8J-20">
          <mxGeometry x="1" relative="1" as="geometry" />
        </mxCell>
      </root>
    </mxGraphModel>
  </diagram>
</mxfile>
